# xmcd CD database file
#
# Track frame offsets:
#	150
#	93522
#	100523
#	132252
#	142395
#	171270
#
# Disc length: 2668 seconds
#
# Revision: 0
# Processed by: cddbd v1.5.1PL0 Copyright (c) Steve Scherf et al.
# Submitted via: CDex 1.51
#
DISCID=510a6a06
DTITLE=Ultralyd - Ultralyd
DYEAR=2004
DGENRE=Jazz
TTITLE0=Ultralyd 1
TTITLE1=Ultralyd 2
TTITLE2=Ultralyd 3
TTITLE3=Ultralyd 4
TTITLE4=Ultralyd 5
TTITLE5=Ultralyd 6
EXTD=YEAR: 2004
EXTT0=
EXTT1=
EXTT2=
EXTT3=
EXTT4=
EXTT5=
PLAYORDER=
